{"title":"Last Exit to Brooklyn (1989) Blu-ray Remux 1080p MediaClub","uid":10642452,"size":20339357938,"categoryP":"video","categoryS":"hd___movies","magnet":"?xt=urn:btih:8492e25fe0dc1384a2b8d1b8d65c4c8088bba093&amp;dn=Last+Exit+to+Brooklyn+%281989%29+Blu-ray+Remux+1080p+MediaClub&amp;tr=udp%3A%2F%2Ftracker.openbittorrent.com%3A80&amp;tr=udp%3A%2F%2Fopen.demonii.com%3A1337&amp;tr=udp%3A%2F%2Ftracker.coppersurfer.tk%3A6969&amp;tr=udp%3A%2F%2Fexodus.desync.com%3A6969","seeders":2,"leechers":0,"uploader":"neni69","files":1,"time":1406492402,"description":" &lt;a href=&quot; http://mediaclub.tv/&quot; rel=&quot;nofollow&quot; target=&quot;_NEW&quot;&gt; http://mediaclub.tv/&lt;/a&gt;   Welcome to MediaClub\n\n===================================================================\n\nUnique ID                      : 247126786616004956453273527802306254016 (0xB9EAE34982185750ACA785C21A1C54C0)\nComplete name                  : E:MCPosledniy.poworot.na.Bruklin.1989.x264.BDRemux(1080p)-MediaClubPosledniy.poworot.na.Bruklin.1989.x264.BDRemux(1080p)-MediaClub.mkv\nFormat                         : Matroska\nFormat version                 : Version 4 / Version 2\nFile size                      : 18.9 GiB\nDuration                       : 1h 42mn\nOverall bit rate mode          : Variable\nOverall bit rate               : 26.3 Mbps\nMovie name                     : -= Release MediaClub =-\nEncoded date                   : UTC 2014-07-23 16:00:42\nWriting application            : mkvmerge v6.4.1 ('Omega Point') built on Sep 16 2013 22:05:10\nWriting library                : libebml v1.3.0 + libmatroska v1.4.1\n\nVideo\nID                             : 1\nFormat                         : AVC\nFormat/Info                    : Advanced Video Codec\nFormat profile                 : &lt;a class=&quot;__cf_email__&quot; href=&quot;/cdn-cgi/l/email-protection&quot; data-cfemail=&quot;9cd4f5fbf4dcd0a8b2ad&quot;&gt;[email&amp;#160;protected]&lt;/a&gt;&lt;script cf-hash='f9e31' type=&quot;text/javascript&quot;&gt;\n/* &lt;![CDATA[ */!function(){try{var t=&quot;currentScript&quot;in document?document.currentScript:function(){for(var t=document.getElementsByTagName(&quot;script&quot;),e=t.length;e--;)if(t[e].getAttribute(&quot;cf-hash&quot;))return t[e]}();if(t&amp;&amp;t.previousSibling){var e,r,n,i,c=t.previousSibling,a=c.getAttribute(&quot;data-cfemail&quot;);if(a){for(e=&quot;&quot;,r=parseInt(a.substr(0,2),16),n=2;a.length-n;n+=2)i=parseInt(a.substr(n,2),16)^r,e+=String.fromCharCode(i);e=document.createTextNode(e),c.parentNode.replaceChild(e,c)}}}catch(u){}}();/* ]]&gt; */&lt;/script&gt;\nFormat settings, CABAC         : Yes\nFormat settings, ReFrames      : 2 frames\nFormat settings, GOP           : M=1, N=10\nCodec ID                       : V_MPEG4/ISO/AVC\nDuration                       : 1h 42mn\nBit rate mode                  : Variable\nBit rate                       : 23.7 Mbps\nWidth                          : 1 920 pixels\nHeight                         : 1 080 pixels\nDisplay aspect ratio           : 16:9\nFrame rate                     : 23.976 fps\nColor space                    : YUV\nChroma subsampling             : 4:2:0\nBit depth                      : 8 bits\nScan type                      : Progressive\nBits/(Pixel*Frame)             : 0.476\nStream size                    : 17.0 GiB (90%)\nTitle                          : Posledniy.poworot.na.Bruklin.1989.x264.BDRmux(1080p)-neni\nLanguage                       : English\nDefault                        : No\nForced                         : No\n\nAudio #1\nID                             : 2\nFormat                         : AC-3\nFormat/Info                    : Audio Coding 3\nMode extension                 : CM (complete main)\nFormat settings, Endianness    : Big\nCodec ID                       : A_AC3\nDuration                       : 1h 42mn\nBit rate mode                  : Constant\nBit rate                       : 192 Kbps\nChannel(s)                     : 2 channels\nChannel positions              : Front: L R\nSampling rate                  : 48.0 KHz\nBit depth                      : 16 bits\nCompression mode               : Lossy\nStream size                    : 141 MiB (1%)\nTitle                          : MVO @ AC3 192 kbs\nLanguage                       : Russian\nDefault                        : Yes\nForced                         : No\n\nAudio #2\nID                             : 3\nFormat                         : AC-3\nFormat/Info                    : Audio Coding 3\nMode extension                 : CM (complete main)\nFormat settings, Endianness    : Big\nCodec ID                       : A_AC3\nDuration                       : 1h 42mn\nBit rate mode                  : Constant\nBit rate                       : 192 Kbps\nChannel(s)                     : 2 channels\nChannel positions              : Front: L R\nSampling rate                  : 48.0 KHz\nBit depth                      : 16 bits\nCompression mode               : Lossy\nStream size                    : 141 MiB (1%)\nTitle                          : AVO Michalev @ AC3 192 kbs\nLanguage                       : Russian\nDefault                        : No\nForced                         : No\n\nAudio #3\nID                             : 4\nFormat                         : AC-3\nFormat/Info                    : Audio Coding 3\nMode extension                 : CM (complete main)\nFormat settings, Endianness    : Big\nCodec ID                       : A_AC3\nDuration                       : 1h 42mn\nBit rate mode                  : Constant\nBit rate                       : 192 Kbps\nChannel(s)                     : 2 channels\nChannel positions              : Front: L R\nSampling rate                  : 48.0 KHz\nBit depth                      : 16 bits\nCompression mode               : Lossy\nStream size                    : 141 MiB (1%)\nTitle                          : AVO Gavrilov @ AC3 192 kbs\nLanguage                       : Russian\nDefault                        : No\nForced                         : No\n\nAudio #4\nID                             : 5\nFormat                         : DTS\nFormat/Info                    : Digital Theater Systems\nFormat profile                 : MA / Core\nCodec ID                       : A_DTS\nDuration                       : 1h 42mn\nBit rate mode                  : Variable\nBit rate                       : 1 561 Kbps / 1 510 Kbps\nChannel(s)                     : 6 channels\nChannel positions              : Front: L C R, Side: L R, LFE\nSampling rate                  : 48.0 KHz\nBit depth                      : 24 bits\nCompression mode               : Lossless / Lossy\nTitle                          : Original\nLanguage                       : English\nDefault                        : No\nForced                         : No\n\nText #1\nID                             : 6\nFormat                         : UTF-8\nCodec ID                       : S_TEXT/UTF8\nCodec ID/Info                  : UTF-8 Plain Text\nTitle                          : RUS\nLanguage                       : Russian\nDefault                        : No\nForced                         : No\n\nText #2\nID                             : 7\nFormat                         : UTF-8\nCodec ID                       : S_TEXT/UTF8\nCodec ID/Info                  : UTF-8 Plain Text\nLanguage                       : English\nDefault                        : No\nForced                         : No\n\nMenu\n00:00:00.000                   : en:00:00:00.000\n00:08:34.139                   : en:00:08:34.139\n00:12:56.901                   : en:00:12:56.901\n00:19:24.914                   : en:00:19:24.914\n00:24:18.082                   : en:00:24:18.082\n00:30:09.808                   : en:00:30:09.808\n00:34:46.418                   : en:00:34:46.418\n00:41:39.122                   : en:00:41:39.122\n00:48:48.175                   : en:00:48:48.175\n00:54:10.414                   : en:00:54:10.414\n01:00:56.111                   : en:01:00:56.111\n01:07:29.837                   : en:01:07:29.837\n01:12:55.830                   : en:01:12:55.830\n01:17:12.127                   : en:01:17:12.127\n01:23:01.935                   : en:01:23:01.935\n01:27:36.168                   : en:01:27:36.168\n01:32:14.612                   : en:01:32:14.612\n01:37:58.122                   : en:01:37:58.122","torrent":{"xt":"urn:btih:8492e25fe0dc1384a2b8d1b8d65c4c8088bba093","amp;dn":"Last+Exit+to+Brooklyn+%281989%29+Blu-ray+Remux+1080p+MediaClub","amp;tr":["udp%3A%2F%2Ftracker.openbittorrent.com%3A80","udp%3A%2F%2Fopen.demonii.com%3A1337","udp%3A%2F%2Ftracker.coppersurfer.tk%3A6969","udp%3A%2F%2Fexodus.desync.com%3A6969"],"infoHash":"8492e25fe0dc1384a2b8d1b8d65c4c8088bba093","infoHashBuffer":{"type":"Buffer","data":[132,146,226,95,224,220,19,132,162,184,209,184,214,92,76,128,136,187,160,147]},"announce":[],"urlList":[]}}